<svg width="488" height="424" viewBox="0 0 488 424" fill="none" xmlns="http://www.w3.org/2000/svg">
<path d="M290.606 288.941C301.036 282.168 312.069 277.375 324.893 279.183C331.077 280.05 335.785 283.545 339.93 288.115C341.047 289.347 343.414 290.135 345.114 290.009C353.826 289.347 362.492 287.933 371.211 287.617C374.639 287.493 378.144 289.506 381.625 290.54C385.025 296.794 389.081 298.573 396.647 296.003C406.924 292.505 417.854 292.391 428.327 297.042C433.706 299.429 437.241 303.166 438.847 308.39C446.992 307.156 455.09 305.344 463.275 304.839C471.183 304.344 479.172 305.186 487.137 305.434C487.131 306.134 487.123 306.844 487.117 307.545C484.488 307.521 481.844 307.363 479.224 307.514C468.503 308.103 457.771 308.641 447.065 309.477C442.031 309.878 439.559 312.496 439.051 318.106C438.229 327.267 434.511 335.361 426.364 340.661C422.336 343.289 416.803 343.577 414.705 341.323C412.327 338.763 412.258 332.641 415.504 329.29C420.765 323.869 426.409 318.751 432.307 314.015C436.311 310.803 437.157 308.457 433.698 304.358C427.057 296.484 417.879 295.587 408.606 296.371C402.05 296.92 395.606 298.801 388.719 300.164C389.081 303.351 389.558 305.909 389.628 308.473C389.98 321.103 383.104 329.624 373.284 336.235C370.143 338.344 366.675 340.129 363.139 341.454C355.16 344.447 351.249 341.098 352.755 332.702C354.412 323.479 359.004 315.882 366.55 310.37C372.1 306.313 378.043 302.785 384.6 298.505C383.631 297.687 382.311 296.572 381.001 295.448C379.033 293.817 377.312 291.387 375.053 290.679C364.938 287.507 355.115 290.579 345.36 293.053C344.901 293.173 344.955 295.267 344.771 296.443C344.188 317.461 333.308 331.421 314.632 339.705C307.717 342.77 301.085 340.733 299.147 334.716C298.039 331.27 298.453 326.731 299.731 323.244C303.778 312.182 312.64 305.253 322.274 299.219C323.537 298.423 324.84 297.696 326.128 296.935C330.277 295.204 334.417 293.47 338.776 291.645C334.168 284.662 328.203 280.704 320.638 280.987C308.262 281.457 297.253 285.949 288.3 294.822C279.154 301.139 273.637 310.286 268.852 319.993C268.419 319.802 267.987 319.611 267.554 319.42C268.614 316.513 269.211 313.308 270.836 310.759C273.47 306.646 276.85 303.005 279.767 299.066C280.698 297.813 281.19 296.235 281.888 294.808C282.532 294.122 283.168 293.426 283.812 292.74C286.076 291.477 288.342 290.204 290.606 288.941ZM339.809 293.115C331.748 297.608 323.747 301.054 316.974 306.128C309.903 311.432 303.238 317.745 301.659 327.378C300.229 336.134 304.87 340.053 313.296 337.061C325.308 332.803 332.728 323.477 338.448 312.883C341.393 307.455 342.857 301.125 339.809 293.115ZM385.822 302.104C376.237 305.596 368.356 310.609 362.487 318.573C358.82 323.554 355.891 328.782 355.516 335.169C355.282 339.111 357.004 340.372 360.579 339.278C373.565 335.31 390.468 322.493 385.822 302.104ZM436.802 314.34C427.611 318.961 421.391 325.559 416.642 333.514C415.808 334.907 416.395 338.755 417.445 339.293C419.061 340.128 422.012 339.722 423.769 338.732C432.851 333.603 435.438 324.795 436.802 314.34Z" fill="#8A4FFF"/>
<path fill-rule="evenodd" clip-rule="evenodd" d="M249.839 0.00280914C315.157 -0.237728 384.624 14.9084 423.694 68.8293C461.698 121.279 449.502 191.465 434.685 255.109C420.147 317.557 400.01 384.862 343.701 412.425C287.628 439.872 224.382 413.493 168.64 385.336C113.569 357.517 60.1667 320.915 42.6653 260.358C23.8572 195.281 35.749 122.617 77.5356 70.1041C118.722 18.3454 184.871 0.24206 249.839 0.00280914Z" fill="#8A4FFF" fill-opacity="0.14"/>
<path d="M344.65 66.981L46.7566 181.268C37.0378 184.997 30.4566 193.864 30.5828 203.041L31.202 271.033C31.2315 277.572 32.5099 283.945 34.8424 290.024L67.3176 374.672L135.139 348.652C143.566 366.634 166.686 374.561 188.263 366.283C209.845 358.003 221.734 336.645 215.964 317.644L325.221 275.727C333.641 293.711 356.865 301.598 378.346 293.357C399.924 285.079 411.81 263.722 406.029 244.725L469.262 220.466L421.131 95.011C410.542 67.4111 376.27 54.8499 344.65 66.981ZM192.739 326.554C194.332 334.348 189.219 342.77 180.523 346.106C171.834 349.44 162.303 346.636 158.271 339.778C157.89 339.104 157.511 338.43 157.204 337.631C156.279 335.22 156.033 332.752 156.584 330.185C157.287 324.073 161.987 318.276 168.836 315.648C175.695 313.017 182.961 314.223 187.676 318.256C189.702 319.834 191.167 321.835 192.091 324.246C192.399 325.045 192.562 325.802 192.739 326.554ZM382.915 253.593C384.506 261.388 379.294 269.847 370.605 273.181C361.913 276.515 352.476 273.676 348.448 266.816C348.076 266.139 347.691 265.466 347.385 264.667C346.46 262.257 346.21 259.79 346.66 257.262C347.467 251.11 352.066 245.351 358.92 242.722C365.771 240.093 373.141 241.26 377.753 245.333C379.88 246.872 381.347 248.872 382.272 251.283C382.578 252.082 382.741 252.84 382.915 253.593ZM455.609 215.464L402.013 236.027C392.154 221.053 370.954 215.071 351.217 222.643C331.574 230.179 319.718 248.843 322.408 266.567L211.93 308.952C202.074 293.977 180.877 287.994 161.134 295.569C141.398 303.141 129.643 321.766 132.328 339.491L74.1218 361.823L45.0708 286.1C43.1169 281.007 42.0889 275.567 41.9404 269.983L41.3546 202.075C41.3126 197.083 44.8677 192.232 50.1809 190.194L348.075 75.9061C361.072 70.9197 374.609 71.0544 385.947 75.2073C397.388 79.3204 406.549 87.5881 410.903 98.9351L455.609 215.464Z" fill="black" fill-opacity="0.78"/>
<path d="M349.435 95.5504L318.052 107.591C314.846 108.821 313.123 112.087 314.194 114.879L330.765 158.071C331.831 160.851 335.301 162.138 338.507 160.908L391.976 140.395C395.174 139.168 396.9 135.887 395.834 133.108L386.659 109.195C381.513 95.7824 364.808 89.6526 349.435 95.5504Z" fill="black" fill-opacity="0.78"/>
<path d="M82.9982 197.77L71.1228 202.326C68.6145 203.288 66.9177 205.564 66.9397 207.946L67.5266 265.899C67.5482 269.523 68.2226 273.044 69.4956 276.362L79.4573 302.327C80.526 305.113 83.9965 306.379 87.2011 305.15L119.448 292.778C122.647 291.551 124.379 288.288 123.311 285.503L90.7404 200.607C89.6701 197.815 86.1965 196.542 82.9982 197.77Z" fill="black" fill-opacity="0.78"/>
<path d="M181.67 159.914L114.906 185.528C113.311 186.14 112.452 187.782 112.989 189.181L131.495 237.418C132.034 238.823 133.765 239.458 135.361 238.845L202.125 213.231C203.738 212.613 204.601 210.983 204.062 209.578L185.556 161.341C185.019 159.942 183.282 159.295 181.67 159.914Z" fill="black" fill-opacity="0.78"/>
<path d="M281.17 121.741L211.916 148.31C210.317 148.923 209.455 150.567 209.992 151.966L228.498 200.203C229.037 201.608 230.772 202.241 232.372 201.627L301.625 175.058C303.221 174.446 304.084 172.816 303.545 171.411L285.039 123.174C284.502 121.775 282.765 121.129 281.17 121.741Z" fill="black" fill-opacity="0.78"/>
<path d="M68.5685 81.6771C75.5414 78.7265 82.5143 75.7759 89.4871 72.8114C89.8907 73.6882 90.3083 74.5511 90.7119 75.428C84.2679 82.7209 72.8274 81.7467 65.4092 89.5685C75.1795 95.2888 84.6576 100.828 94.1357 106.381C93.7878 107.063 93.4259 107.745 93.0779 108.413C82.7787 106.729 74.9569 99.2693 64.1844 94.1475C66.9958 106.465 69.4871 117.446 71.9923 128.427C71.4356 128.956 70.865 129.485 70.3083 130C68.6938 128.399 66.0772 127.022 65.6319 125.143C63.9896 118.267 63.0988 111.211 61.8601 104.238C61.4704 102.067 60.872 99.9374 60.3709 97.794C59.675 97.6409 58.9791 97.4878 58.2832 97.3347C54.8455 106.298 51.4078 115.275 47.9005 124.461C43.753 120.327 45.437 114.05 55.6945 93.9944C46.4948 96.7919 38.1162 99.3528 29.7237 101.914C29.4732 101.232 29.2366 100.536 29 99.8539C37.8796 96.2074 46.7731 92.5609 57.3507 88.2185C49.9603 83.1524 43.7669 78.8935 37.5734 74.6486C37.9214 74.064 38.2693 73.4795 38.6173 72.8949C44.5602 75.929 50.5031 78.9631 57.3368 82.4565C55.8198 71.364 54.3862 60.9255 52.9666 50.4732C53.8295 50.3201 54.7063 50.167 55.5692 50C57.5177 59.659 59.4523 69.318 61.4008 78.977C61.874 79.2276 62.3333 79.4642 62.8065 79.7147C66.9541 71.3083 71.1016 62.9019 75.263 54.4816C76.0285 54.8434 76.794 55.1914 77.5595 55.5532C74.1496 63.8205 70.7397 72.0877 67.3299 80.3549C67.2324 80.8977 67.135 81.4266 67.0376 81.9555C67.5386 81.858 68.0536 81.7606 68.5685 81.6771Z" fill="#8A4FFF"/>
</svg>
