<svg width="26" height="26" viewBox="0 0 26 26" fill="none" xmlns="http://www.w3.org/2000/svg">
<g clip-path="url(#clip0_186_150)">
<path d="M13 0C5.83172 0 0 5.83182 0 13C0 20.1682 5.83172 26 13 26C20.1683 26 26 20.1682 26 13C26 5.83182 20.1683 0 13 0ZM13 23.4839C7.21921 23.4839 2.51611 18.7808 2.51611 13C2.51611 7.21916 7.21921 2.51611 13 2.51611C18.7808 2.51611 23.4839 7.21921 23.4839 13C23.4839 18.7808 18.7808 23.4839 13 23.4839Z" fill="black"/>
<path d="M18.041 9.73816L16.2618 7.95898L13 11.2208L9.73817 7.95898L7.959 9.73816L11.2208 13L7.959 16.2618L9.73817 18.041L13 14.7792L16.2618 18.041L18.041 16.2618L14.7792 13L18.041 9.73816Z" fill="black"/>
</g>
<defs>
<clipPath id="clip0_186_150">
<rect width="26" height="26" fill="white"/>
</clipPath>
</defs>
</svg>
