<svg width="54" height="80" viewBox="0 0 54 80" fill="none" xmlns="http://www.w3.org/2000/svg">
<path d="M18 0V16H13.5V9.6H0V67.2H4.5V70.4C4.5 73 5.15625 75.2333 6.46875 77.1C7.82812 79.0333 9.42188 80 11.25 80C13.0781 80 14.6484 79.0333 15.9609 77.1C17.3203 75.2333 18 73 18 70.4V67.2H54V16H45V0H18ZM22.5 6.4H40.5V22.4H22.5V6.4ZM4.5 16H9V60.8H4.5V16ZM13.5 22.4H18V28.8H45V22.4H49.5V60.8H13.5V22.4ZM20.25 35.2V41.6H24.75V35.2H20.25ZM29.25 35.2V41.6H33.75V35.2H29.25ZM38.25 35.2V41.6H42.75V35.2H38.25ZM20.25 48V54.4H24.75V48H20.25ZM29.25 48V54.4H33.75V48H29.25ZM38.25 48V54.4H42.75V48H38.25ZM9 67.2H13.5V70.4C13.5 71.2667 13.2656 72.0333 12.7969 72.7C12.375 73.3 11.8594 73.6 11.25 73.6C10.6406 73.6 10.1016 73.3 9.63281 72.7C9.21094 72.0333 9 71.2667 9 70.4V67.2Z" fill="black"/>
</svg>
