<svg width="38" height="31" viewBox="0 0 38 31" fill="none" xmlns="http://www.w3.org/2000/svg">
<g clip-path="url(#clip0_20_100)">
<path fill-rule="evenodd" clip-rule="evenodd" d="M18.9985 23C24.2452 23 28.4985 19.6421 28.4985 15.5C28.4985 11.3579 24.2452 8 18.9985 8C13.7518 8 9.49854 11.3579 9.49854 15.5C9.49854 19.6421 13.7518 23 18.9985 23ZM18.9985 20.5C22.4963 20.5 25.3319 18.2614 25.3319 15.5C25.3319 12.7386 22.4963 10.5 18.9985 10.5C15.5007 10.5 12.6652 12.7386 12.6652 15.5C12.6652 18.2614 15.5007 20.5 18.9985 20.5Z" fill="#0F0F0F"/>
<path d="M28.4986 6.75C27.6241 6.75 26.9153 7.30965 26.9153 8C26.9153 8.69035 27.6241 9.25 28.4986 9.25C29.3731 9.25 30.0819 8.69035 30.0819 8C30.0819 7.30965 29.3731 6.75 28.4986 6.75Z" fill="#0F0F0F"/>
<path fill-rule="evenodd" clip-rule="evenodd" d="M1.08151 6.50655C-0.00146484 8.06641 -0.00146484 10.1084 -0.00146484 14.1923V17.5953C-0.00146484 21.6792 -0.00146484 23.7212 1.08151 25.2809C2.03412 26.6531 3.55415 27.7686 5.42377 28.4677C7.54922 29.2625 10.3316 29.2625 15.8964 29.2625H20.5332C26.098 29.2625 28.8804 29.2625 31.0057 28.4677C32.8754 27.7686 34.3955 26.6531 35.348 25.2809C36.431 23.7212 36.431 21.6792 36.431 17.5953V14.1923C36.431 10.1084 36.431 8.06641 35.348 6.50655C34.3955 5.13446 32.8754 4.01892 31.0057 3.31981C28.8804 2.52502 26.098 2.52502 20.5332 2.52502H15.8964C10.3316 2.52502 7.54922 2.52502 5.42377 3.31981C3.55415 4.01892 2.03412 5.13446 1.08151 6.50655ZM20.5332 4.95571H15.8964C13.0593 4.95571 11.1307 4.9576 9.64003 5.04698C8.18797 5.13405 7.44541 5.29186 6.9274 5.48556C5.681 5.95164 4.66764 6.69533 4.03256 7.61006C3.76862 7.99022 3.55359 8.53518 3.43495 9.60084C3.31316 10.6949 3.31058 12.1102 3.31058 14.1923V17.5953C3.31058 19.6774 3.31316 21.0926 3.43495 22.1867C3.55359 23.2524 3.76862 23.7974 4.03256 24.1775C4.66764 25.0922 5.681 25.8359 6.9274 26.302C7.44541 26.4957 8.18797 26.6536 9.64003 26.7406C11.1307 26.8299 13.0593 26.8318 15.8964 26.8318H20.5332C23.3703 26.8318 25.2988 26.8299 26.7895 26.7406C28.2417 26.6536 28.9842 26.4957 29.5022 26.302C30.7486 25.8359 31.7619 25.0922 32.397 24.1775C32.6609 23.7974 32.8761 23.2524 32.9946 22.1867C33.1163 21.0926 33.119 19.6774 33.119 17.5953V14.1923C33.119 12.1102 33.1163 10.6949 32.9946 9.60084C32.8761 8.53518 32.6609 7.99022 32.397 7.61006C31.7619 6.69533 30.7486 5.95164 29.5022 5.48556C28.9842 5.29186 28.2417 5.13405 26.7895 5.04698C25.2988 4.9576 23.3703 4.95571 20.5332 4.95571Z" fill="#0F0F0F"/>
</g>
<defs>
<clipPath id="clip0_20_100">
<rect width="38" height="30" fill="white" transform="translate(-0.00146484 0.5)"/>
</clipPath>
</defs>
</svg>
