<svg width="33" height="29" viewBox="0 0 33 29" fill="none" xmlns="http://www.w3.org/2000/svg">
<g clip-path="url(#clip0_20_48)">
<path d="M30.2788 10.2643C28.4774 4.19647 23.0073 0 16.7861 0C10.5838 0 5.09296 4.20329 3.29343 10.2643C1.88731 10.4042 0.786133 11.4789 0.786133 12.7941V19.6176C0.786133 20.6838 1.50519 21.5965 2.52543 21.9803C2.8906 24.9605 5.65578 27.2941 9.04025 27.2941H14.1358C14.5254 28.2852 15.5607 29 16.7861 29H22.4332C23.9899 29 25.2567 27.8519 25.2567 26.4412C25.2567 25.0304 23.9899 23.8824 22.4332 23.8824H16.7861C15.5607 23.8824 14.5254 24.5971 14.1358 25.5882H9.04025C6.76637 25.5882 4.86707 24.1212 4.43037 22.1765H6.43319V20.4706H8.31554V11.9412H6.43319V10.2353H5.29249C7.01107 5.18418 11.6021 1.70588 16.7861 1.70588C21.9852 1.70588 26.5612 5.18076 28.2798 10.2353H27.1391V11.9412H25.2567V20.4706H27.1391V22.1765H29.9739C31.525 22.1765 32.7861 21.0284 32.7861 19.6176V12.7941C32.7861 11.4789 31.685 10.4042 30.2788 10.2643ZM16.7861 25.5882H22.4332C22.9508 25.5882 23.3744 25.9704 23.3744 26.4412C23.3744 26.912 22.9508 27.2941 22.4332 27.2941H16.7861C16.2685 27.2941 15.845 26.912 15.845 26.4412C15.845 25.9704 16.2685 25.5882 16.7861 25.5882ZM4.55084 20.4706H3.59837C3.08637 20.4706 2.66849 20.0885 2.66849 19.6176V12.7941C2.66849 12.3233 3.08637 11.9412 3.59837 11.9412H4.55084V20.4706ZM30.9038 19.6176C30.9038 20.0885 30.4859 20.4706 29.9739 20.4706H29.0214V11.9412H29.9739C30.4859 11.9412 30.9038 12.3233 30.9038 12.7941V19.6176Z" fill="black"/>
</g>
<defs>
<clipPath id="clip0_20_48">
<rect width="32" height="29" fill="white" transform="translate(0.786133)"/>
</clipPath>
</defs>
</svg>
