<svg width="33" height="30" viewBox="0 0 33 30" fill="none" xmlns="http://www.w3.org/2000/svg">
<g clip-path="url(#clip0_20_48)">
<path d="M29.8858 10.7643C28.0844 4.69647 22.6142 0.5 16.3931 0.5C10.1907 0.5 4.69989 4.70329 2.90036 10.7643C1.49424 10.9042 0.393066 11.9789 0.393066 13.2941V20.1176C0.393066 21.1838 1.11213 22.0965 2.13236 22.4803C2.49754 25.4605 5.26271 27.7941 8.64718 27.7941H13.7427C14.1324 28.7852 15.1677 29.5 16.3931 29.5H22.0401C23.5968 29.5 24.8637 28.3519 24.8637 26.9412C24.8637 25.5304 23.5968 24.3824 22.0401 24.3824H16.3931C15.1677 24.3824 14.1324 25.0971 13.7427 26.0882H8.64718C6.3733 26.0882 4.47401 24.6212 4.0373 22.6765H6.04013V20.9706H7.92248V12.4412H6.04013V10.7353H4.89942C6.61801 5.68418 11.2091 2.20588 16.3931 2.20588C21.5921 2.20588 26.1681 5.68076 27.8867 10.7353H26.746V12.4412H24.8637V20.9706H26.746V22.6765H29.5808C31.1319 22.6765 32.3931 21.5284 32.3931 20.1176V13.2941C32.3931 11.9789 31.2919 10.9042 29.8858 10.7643ZM16.3931 26.0882H22.0401C22.5578 26.0882 22.9813 26.4704 22.9813 26.9412C22.9813 27.412 22.5578 27.7941 22.0401 27.7941H16.3931C15.8754 27.7941 15.4519 27.412 15.4519 26.9412C15.4519 26.4704 15.8754 26.0882 16.3931 26.0882ZM4.15777 20.9706H3.2053C2.6933 20.9706 2.27542 20.5885 2.27542 20.1176V13.2941C2.27542 12.8233 2.6933 12.4412 3.2053 12.4412H4.15777V20.9706ZM30.5107 20.1176C30.5107 20.5885 30.0928 20.9706 29.5808 20.9706H28.6284V12.4412H29.5808C30.0928 12.4412 30.5107 12.8233 30.5107 13.2941V20.1176Z" fill="black"/>
</g>
<defs>
<clipPath id="clip0_20_48">
<rect width="32" height="29" fill="white" transform="translate(0.393066 0.5)"/>
</clipPath>
</defs>
</svg>
