<svg width="35" height="29" viewBox="0 0 35 29" fill="none" xmlns="http://www.w3.org/2000/svg">
<path d="M1.1365 28.0711H5.68639C6.31409 28.0711 6.82289 27.6391 6.82289 27.1062V10.222C6.82289 9.68905 6.31409 9.25714 5.68639 9.25714H1.1365C0.508736 9.25714 0 9.68905 0 10.222V27.1062C0 27.639 0.508736 28.0711 1.1365 28.0711Z" fill="black"/>
<path d="M1.1365 6.28882H5.68639C6.31409 6.28882 6.82289 5.85685 6.82289 5.32394V1.89377C6.82289 1.36086 6.31409 0.928894 5.68639 0.928894H1.1365C0.508736 0.928894 0 1.36086 0 1.89377V5.32394C0 5.85685 0.508736 6.28882 1.1365 6.28882Z" fill="black"/>
<path d="M33.2867 11.2155C32.6473 10.501 31.7045 9.91341 30.458 9.45285C29.2115 8.99261 27.8355 8.76233 26.33 8.76233C23.274 8.76233 20.6844 9.75252 18.5614 11.7333C18.1389 12.1274 17.8318 12.0412 17.8318 11.5083V10.222C17.8318 9.68904 17.3229 9.25713 16.6952 9.25713H12.6309C12.0031 9.25713 11.4944 9.68904 11.4944 10.222V27.1061C11.4944 27.6391 12.0032 28.0711 12.6309 28.0711H17.1808C17.8085 28.0711 18.3173 27.6391 18.3173 27.1061V21.2343C18.3173 18.7881 18.4913 17.1113 18.8392 16.2043C19.1871 15.2974 19.8308 14.5691 20.7696 14.0193C21.7086 13.4696 22.7687 13.1946 23.9505 13.1946C24.8732 13.1946 25.6624 13.387 26.3181 13.7719C26.9737 14.1568 27.4472 14.696 27.7386 15.3901C28.0301 16.0842 28.1757 17.6131 28.1757 19.9769V27.1061C28.1757 27.639 28.6845 28.071 29.3122 28.071H33.8621C34.4898 28.071 34.9985 27.639 34.9985 27.1061V17.5443C34.9985 15.854 34.873 14.5552 34.6224 13.6483C34.3717 12.7413 33.9264 11.9303 33.2867 11.2155Z" fill="black"/>
</svg>
