<svg width="40" height="29" viewBox="0 0 40 29" fill="none" xmlns="http://www.w3.org/2000/svg">
<path fill-rule="evenodd" clip-rule="evenodd" d="M19.8902 0.224304C8.90504 0.224304 -0.00146484 6.77725 -0.00146484 14.862C-0.00146484 21.3285 5.69807 26.8143 13.6037 28.7505C14.5988 28.8845 14.9614 28.4326 14.9614 28.044C14.9614 27.6975 14.9448 26.7766 14.9349 25.5554C9.40091 26.4397 8.23368 23.593 8.23368 23.593C7.32887 21.9028 6.02423 21.4527 6.02423 21.4527C4.21793 20.544 6.16082 20.5623 6.16082 20.5623C8.15752 20.6664 9.20802 22.0709 9.20802 22.0709C10.9829 24.3074 13.8645 23.6612 14.9978 23.2872C15.1791 22.3413 15.6915 21.6963 16.261 21.3303C11.8438 20.9612 7.19891 19.7047 7.19891 14.0964C7.19891 12.4988 7.97457 11.1918 9.24693 10.1685C9.04246 9.79822 8.35951 8.31027 9.44147 6.29487C9.44147 6.29487 11.112 5.90141 14.9125 7.79561C16.4995 7.47098 18.2015 7.30836 19.8927 7.30288C21.5823 7.30836 23.2843 7.47098 24.8737 7.79561C28.6717 5.90141 30.3389 6.29487 30.3389 6.29487C31.4242 8.31027 30.7413 9.79822 30.5368 10.1685C31.8116 11.1918 32.5823 12.4988 32.5823 14.0964C32.5823 19.7193 27.93 20.9563 23.4978 21.3187C24.2131 21.7706 24.8488 22.6635 24.8488 24.0297C24.8488 25.986 24.8248 27.5647 24.8248 28.044C24.8248 28.4363 25.1824 28.8919 26.1924 28.7487C34.0914 26.8088 39.786 21.3266 39.786 14.862C39.786 6.77725 30.8787 0.224304 19.8902 0.224304Z" fill="#010101"/>
</svg>
