<svg width="143" height="55" viewBox="0 0 143 55" fill="none" xmlns="http://www.w3.org/2000/svg">
<path d="M0 16.9518H5.71L12.8046 27.5447V16.9518H17.3145V38.0482H11.4595L4.47038 26.8286V38.0482H0V16.9518Z" fill="#8C52FF"/>
<path d="M34.9402 37.1904C34.1138 37.4987 33.2215 37.7523 32.2633 37.9513C31.305 38.1601 30.3072 38.2646 29.2698 38.2646C28.1357 38.2646 27.0544 38.0955 26.0258 37.7573C24.9972 37.4191 24.0917 36.892 23.3093 36.1758C22.5268 35.4596 21.9027 34.5545 21.4367 33.4604C20.9796 32.3564 20.751 31.0434 20.751 29.5216C20.751 28.6563 20.8697 27.8556 21.107 27.1195C21.3444 26.3736 21.6653 25.6972 22.0697 25.0905C22.4829 24.4838 22.962 23.9467 23.5071 23.4792C24.061 23.0117 24.6499 22.6188 25.2741 22.3005C25.9071 21.9822 26.5577 21.7435 27.2258 21.5844C27.894 21.4153 28.5489 21.3307 29.1907 21.3307C30.2017 21.3307 31.094 21.46 31.8677 21.7186C32.6413 21.9673 33.2831 22.3055 33.793 22.7332C34.3116 23.1609 34.7028 23.6582 34.9666 24.2251C35.2303 24.7921 35.3622 25.3938 35.3622 26.0304C35.3622 26.8062 35.2435 27.4677 35.0062 28.0148C34.7776 28.5618 34.4655 29.0243 34.0699 29.4022C33.6831 29.7703 33.2303 30.0637 32.7116 30.2825C32.2017 30.4915 31.661 30.6556 31.0896 30.7749C30.5181 30.8843 29.9335 30.9539 29.3357 30.9838C28.7467 31.0136 28.1841 31.0285 27.6478 31.0285C27.4632 31.0285 27.2829 31.0285 27.1071 31.0285C26.9401 31.0186 26.7731 31.0136 26.606 31.0136C26.6764 31.5806 26.8126 32.058 27.0148 32.4459C27.2258 32.8338 27.4851 33.1521 27.7928 33.4007C28.1094 33.6395 28.4698 33.8135 28.8742 33.923C29.2874 34.0224 29.727 34.0722 30.1929 34.0722C30.5446 34.0722 30.9181 34.0423 31.3138 33.9827C31.7182 33.923 32.1226 33.8434 32.527 33.7439C32.9402 33.6345 33.349 33.5152 33.7534 33.3858C34.1666 33.2466 34.5622 33.1024 34.9402 32.9531V37.1904ZM26.4873 28.716C26.6983 28.7061 26.9665 28.6911 27.2918 28.6712C27.6258 28.6513 27.9774 28.6165 28.3467 28.5668C28.7159 28.517 29.0852 28.4474 29.4544 28.3579C29.8236 28.2684 30.1578 28.154 30.4566 28.0148C30.7555 27.8755 30.9973 27.7015 31.1819 27.4925C31.3665 27.2837 31.4588 27.03 31.4588 26.7316C31.4588 26.2244 31.2786 25.8215 30.9181 25.5232C30.5665 25.2148 30.0742 25.0606 29.4412 25.0606C29.1511 25.0606 28.839 25.1103 28.5049 25.2098C28.1709 25.2994 27.8588 25.4784 27.5687 25.7469C27.2786 26.0155 27.0324 26.3885 26.8302 26.8659C26.628 27.3433 26.5137 27.96 26.4873 28.716ZM49.6306 29.4471L54.3778 37.8319H47.9159L45.16 32.4757L42.6808 37.8319H37.8939L41.9426 29.5366L37.1952 21.7335H43.6566L46.2811 26.8809L48.9314 21.7335H53.7182L49.6306 29.4471ZM59.125 37.8319V21.5993H54.9053V16.7355H69.3451V21.5993H65.033V37.8319H59.125Z" fill="black"/>
<mask id="mask0_16_38" style="mask-type:luminance" maskUnits="userSpaceOnUse" x="72" y="0" width="72" height="55">
<path d="M143 0H72.782V55H143V0Z" fill="white"/>
</mask>
<g mask="url(#mask0_16_38)">
<path d="M134.223 8.59375C138.923 8.59375 142.761 11.4881 142.989 15.1256L143 15.4688V39.5313C143 43.2132 139.305 46.219 134.661 46.3979L134.223 46.4063L133.946 46.4076C132.971 49.3722 129.535 51.5625 125.446 51.5625C121.356 51.5625 117.92 49.3722 116.945 46.4076H98.8371C97.8619 49.3722 94.426 51.5625 90.3365 51.5625C86.2471 51.5625 82.8112 49.3722 81.8359 46.4076L81.5593 46.4063C76.8588 46.4063 73.0208 43.512 72.7928 39.8744L72.782 39.5313V15.4688C72.782 11.7869 76.4771 8.78102 81.1211 8.60217L81.5593 8.59375H134.223ZM90.3365 41.25C87.9125 41.25 85.9482 42.7891 85.9482 44.6875C85.9482 46.586 87.9125 48.125 90.3365 48.125C92.7606 48.125 94.7249 46.586 94.7249 44.6875C94.7249 42.7891 92.7606 41.25 90.3365 41.25ZM125.446 41.25C123.022 41.25 121.057 42.7891 121.057 44.6875C121.057 46.586 123.022 48.125 125.446 48.125C127.87 48.125 129.834 46.586 129.834 44.6875C129.834 42.7891 127.87 41.25 125.446 41.25ZM134.223 12.0313H81.5593C79.2457 12.0313 77.3504 13.4335 77.1829 15.2122L77.1703 15.4688V39.5313C77.1703 41.3435 78.9612 42.8281 81.2316 42.9594L81.5593 42.9688L81.8359 42.9692C82.81 40.0038 86.2465 37.8125 90.3365 37.8125C94.4266 37.8125 97.8631 40.0038 98.8371 42.9692H116.945C117.919 40.0038 121.356 37.8125 125.446 37.8125C129.536 37.8125 132.972 40.0038 133.946 42.9692L134.223 42.9688C136.536 42.9688 138.432 41.5665 138.599 39.7878L138.612 39.5313V15.4688C138.612 13.6566 136.821 12.1719 134.551 12.0407L134.223 12.0313ZM127.64 15.4688C131.276 15.4688 134.223 17.7773 134.223 20.625V27.5C134.223 30.3477 131.276 32.6563 127.64 32.6563H88.1424C84.5066 32.6563 81.5593 30.3477 81.5593 27.5V20.625C81.5593 17.7773 84.5066 15.4688 88.1424 15.4688H127.64ZM96.9196 18.9063H88.1424C86.93 18.9063 85.9482 19.6758 85.9482 20.625V27.5C85.9482 28.4493 86.93 29.2188 88.1424 29.2188H96.9196V18.9063ZM114.474 18.9063H101.308V29.2188H114.474V18.9063ZM127.64 18.9063H118.863V29.2188H127.64C128.765 29.2188 129.693 28.5553 129.82 27.7005L129.834 27.5V20.625C129.834 19.6758 128.852 18.9063 127.64 18.9063Z" fill="#894EFE"/>
</g>
</svg>
