<svg width="40" height="40" viewBox="0 0 40 40" fill="none" xmlns="http://www.w3.org/2000/svg">
<circle cx="20" cy="20" r="20" fill="#9E6DFE"/>
<path fill-rule="evenodd" clip-rule="evenodd" d="M25.7491 24.8431C27.0327 23.1743 27.8002 21.0576 27.8002 18.7544C27.8002 13.3672 23.6009 9 18.4209 9C13.2409 9 9.04163 13.3672 9.04163 18.7544C9.04163 24.1416 13.2409 28.5089 18.4209 28.5089C20.6355 28.5089 22.6708 27.7107 24.2754 26.3758L30.1792 32.5159C30.5862 32.9392 31.2461 32.9392 31.6531 32.5159C32.0601 32.0927 32.0601 31.4064 31.6531 30.9831L25.7491 24.8431ZM18.4209 26.3521C14.3862 26.3521 11.1154 22.9505 11.1154 18.7544C11.1154 14.5584 14.3862 11.1568 18.4209 11.1568C22.4556 11.1568 25.7263 14.5584 25.7263 18.7544C25.7263 22.9505 22.4556 26.3521 18.4209 26.3521Z" fill="#0F0F0F"/>
</svg>
