<svg width="46" height="52" viewBox="0 0 46 52" fill="none" xmlns="http://www.w3.org/2000/svg">
<path d="M24.9792 0.772705V4.28522C28.1127 4.28522 31.0483 5.16334 33.7861 6.9196C36.3919 8.63926 38.4699 10.9443 40.0202 13.8349C41.6035 16.8717 42.3951 20.1281 42.3951 23.604H45.5616C45.5616 19.4695 44.6216 15.6277 42.7414 12.0786C40.9273 8.63926 38.4699 5.91341 35.3694 3.90103C32.1698 1.81548 28.7064 0.772705 24.9792 0.772705ZM8.60222 6.04147C7.71163 6.04147 6.93649 6.35247 6.27679 6.97448L1.18065 12.7372L1.32908 12.6274C0.50446 13.3958 -0.0397886 14.3471 -0.303667 15.4813C-0.53456 16.6156 -0.468591 17.7132 -0.105758 18.7743C0.817815 21.6282 2.05474 24.5553 3.60503 27.5556C5.78202 31.6901 8.37133 35.4039 11.3729 38.6968C16.1887 44.0754 22.1754 48.3197 29.3331 51.4297H29.3826C30.3392 51.7956 31.2957 51.8688 32.2523 51.6492C33.2418 51.4297 34.1159 50.954 34.8746 50.2223L39.8718 44.6791C40.5315 43.9473 40.8613 43.0509 40.8613 41.9898C40.8613 40.8922 40.5315 39.9774 39.8718 39.2457L33.3903 32.0011C32.7306 31.2693 31.906 30.9035 30.9164 30.9035C29.9269 30.9035 29.1022 31.2693 28.4426 32.0011L25.3255 35.5136C22.8187 34.1964 20.6417 32.5682 18.7945 30.629C16.9474 28.6533 15.4795 26.2567 14.391 23.4394L17.5576 19.9269C18.2503 19.1219 18.5966 18.1706 18.5966 17.0729C18.5966 15.9387 18.2008 15.024 17.4092 14.3288L17.5576 14.4934L10.9276 6.97448C10.2679 6.35247 9.49281 6.04147 8.60222 6.04147ZM24.9792 7.79773V11.3102C26.9912 11.3102 28.8384 11.8591 30.5206 12.9567C32.2358 14.0544 33.5882 15.5545 34.5777 17.4571C35.5673 19.3231 36.062 21.3721 36.062 23.604H39.2286C39.2286 20.7501 38.5854 18.0974 37.299 15.646C36.0126 13.2677 34.2973 11.3651 32.1533 9.93816C29.9434 8.5112 27.552 7.79773 24.9792 7.79773ZM8.60222 9.55398C8.70117 9.55398 8.81662 9.60886 8.94856 9.71863L15.4301 17.0729C15.463 17.2193 15.4301 17.3474 15.3311 17.4571L10.6308 22.6161L10.9771 23.7138L11.6203 25.2505C12.1481 26.4945 12.7583 27.702 13.451 28.8728C14.4075 30.5193 15.463 31.9279 16.6175 33.0988C18.1678 34.7819 20.0314 36.3186 22.2084 37.7089C23.2969 38.4041 24.2205 38.9164 24.9792 39.2457L25.9687 39.7396L30.768 34.416C30.8339 34.3428 30.8834 34.3062 30.9164 34.3062C30.9494 34.3062 30.9989 34.3428 31.0648 34.416L37.7443 41.8252C37.8102 41.8983 37.8432 41.9532 37.8432 41.9898C37.8432 41.9898 37.8102 42.0264 37.7443 42.0996L32.7965 47.533C32.0709 48.2282 31.2792 48.4111 30.4216 48.0818C23.6927 45.1913 18.0853 41.2397 13.5994 36.2271C10.8287 33.1537 8.40431 29.6594 6.32627 25.7445C4.84196 22.9271 3.68749 20.2013 2.86287 17.5669V17.512C2.73093 17.1827 2.71444 16.7985 2.81339 16.3595C2.91235 15.8838 3.09376 15.5179 3.35764 15.2618L8.25588 9.71863C8.35483 9.60886 8.47028 9.55398 8.60222 9.55398ZM24.9792 14.8227V18.3353C26.2985 18.3353 27.42 18.8475 28.3436 19.872C29.2672 20.8965 29.729 22.1405 29.729 23.604H32.8955C32.8955 22.0307 32.5327 20.5672 31.807 19.2134C31.1143 17.8596 30.1578 16.7985 28.9373 16.0302C27.7169 15.2252 26.3975 14.8227 24.9792 14.8227Z" fill="black"/>
</svg>
