<svg width="39" height="32" viewBox="0 0 39 32" fill="none" xmlns="http://www.w3.org/2000/svg">
<path fill-rule="evenodd" clip-rule="evenodd" d="M31.7159 5.56106C32.2677 5.45437 32.6524 5.34947 32.9677 5.23931C33.4094 5.0849 33.7756 4.89993 34.3543 4.58842C34.8406 4.32661 35.4638 4.30382 35.9768 4.52906C36.4898 4.7543 36.8098 5.19119 36.8098 5.66647C36.8098 7.06267 36.5965 8.20701 36.1028 9.21409C35.6873 10.0612 35.1037 10.7492 34.4056 11.3754C34.1108 15.7194 32.5694 19.1309 30.213 21.7154C27.7705 24.3941 24.5209 26.1096 21.0953 27.0703C17.6798 28.0281 14.0709 28.2421 10.8379 27.9178C7.62603 27.5957 4.65709 26.7282 2.58769 25.4152C2.02098 25.0556 1.82177 24.4299 2.10233 23.8908C2.3829 23.3516 3.07299 23.034 3.78372 23.1169C5.81984 23.3542 7.77983 22.9765 9.3915 22.4366C9.07424 22.2958 8.7751 22.1434 8.49705 21.9863C7.02846 21.157 5.84357 20.031 5.31026 19.1608C5.08956 18.8008 5.08728 18.3773 5.3041 18.0158C5.41595 17.8291 5.5795 17.6701 5.77809 17.5488C3.63383 16.1051 2.76809 14.1083 2.76809 12.7706C2.76809 12.3729 2.99273 11.9973 3.37704 11.7525C3.53864 11.6496 3.72088 11.5746 3.91298 11.5295C3.75253 11.1462 3.62801 10.7589 3.53311 10.384C3.11231 8.72183 3.14966 6.84574 3.60704 5.3532C3.76355 4.84245 4.28437 4.46031 4.92348 4.38728C5.56258 4.31427 6.19206 4.56498 6.51456 5.021C8.22061 7.43342 11.3674 8.908 14.2961 9.78149C15.6731 10.1922 16.9483 10.4539 17.9041 10.6147C18.1104 9.03815 18.65 7.73797 19.4783 6.7053C20.5709 5.34286 22.0949 4.53677 23.7314 4.17734C26.554 3.55747 29.686 4.26367 31.7159 5.56106ZM17.4114 13.1692C16.3267 12.9915 14.8358 12.693 13.2088 12.2078C11.0599 11.5668 8.5645 10.5675 6.47425 9.01944C6.51166 9.30431 6.56476 9.58676 6.63434 9.86155C6.98465 11.2453 7.63559 12.0203 8.22619 12.2612C8.94852 12.5559 9.28327 13.2468 9.00307 13.8647C8.6237 14.7013 7.62591 14.7699 6.71933 14.5851C7.44849 15.4769 8.75907 16.366 10.9451 16.6633C11.699 16.7658 12.2556 17.2931 12.2679 17.9166C12.2802 18.54 11.7448 19.0816 10.9953 19.204L9.61705 19.4288C9.82789 19.5783 10.0562 19.7249 10.2995 19.8623C11.403 20.4856 12.5109 20.7544 13.4674 20.5593C14.1838 20.4132 14.9288 20.6904 15.2632 21.2276C15.5975 21.7647 15.4323 22.4191 14.8651 22.8046C13.8455 23.4969 12.6548 24.0525 11.4615 24.5135C10.9013 24.73 10.2752 24.9436 9.59528 25.1317C10.1182 25.2227 10.6624 25.2974 11.2243 25.3538C14.0278 25.635 17.1481 25.4454 20.0659 24.6273C22.9737 23.8119 25.6614 22.3789 27.6722 20.1736C29.68 17.9713 31.0813 14.9236 31.2692 10.7854C31.2839 10.4596 31.4492 10.1504 31.7319 9.91987C32.4437 9.33907 33.0321 8.67336 33.3215 7.88096C32.815 8.00978 32.2447 8.12127 31.5655 8.22721C31.0501 8.30758 30.5195 8.1745 30.1485 7.87188C28.9381 6.88436 26.5441 6.23496 24.5546 6.67185C23.6184 6.87747 22.7673 7.32261 22.1282 8.11961C21.4757 8.93333 20.9764 10.201 20.9764 12.1249C20.9764 12.4904 20.7866 12.8388 20.4541 13.0837C19.6656 13.6643 18.3386 13.3211 17.4114 13.1692Z" fill="#0F0F0F"/>
</svg>
