<svg width="39" height="31" viewBox="0 0 39 31" fill="none" xmlns="http://www.w3.org/2000/svg">
<path fill-rule="evenodd" clip-rule="evenodd" d="M32.1089 5.06106C32.6607 4.95437 33.0455 4.84947 33.3607 4.73931C33.8025 4.5849 34.1687 4.39993 34.7474 4.08842C35.2336 3.82661 35.8568 3.80382 36.3698 4.02906C36.8828 4.2543 37.2028 4.69119 37.2028 5.16647C37.2028 6.56267 36.9896 7.70701 36.4959 8.71409C36.0804 9.56117 35.4968 10.2492 34.7987 10.8754C34.5039 15.2194 32.9625 18.6309 30.606 21.2154C28.1636 23.8941 24.914 25.6096 21.4884 26.5703C18.0728 27.5281 14.464 27.7421 11.2309 27.4178C8.01909 27.0957 5.05015 26.2282 2.98075 24.9152C2.41404 24.5556 2.21483 23.9299 2.4954 23.3908C2.77596 22.8516 3.46606 22.534 4.17679 22.6169C6.2129 22.8542 8.1729 22.4765 9.78457 21.9366C9.4673 21.7958 9.16816 21.6434 8.89011 21.4863C7.42153 20.657 6.23664 19.531 5.70332 18.6608C5.48262 18.3008 5.48034 17.8773 5.69717 17.5158C5.80901 17.3291 5.97257 17.1701 6.17115 17.0488C4.02689 15.6051 3.16116 13.6083 3.16116 12.2706C3.16116 11.8729 3.3858 11.4973 3.77011 11.2525C3.9317 11.1496 4.11394 11.0746 4.30605 11.0295C4.14559 10.6462 4.02108 10.2589 3.92618 9.88403C3.50537 8.22183 3.54272 6.34574 4.0001 4.8532C4.15661 4.34245 4.67744 3.96031 5.31655 3.88728C5.95564 3.81427 6.58513 4.06498 6.90762 4.521C8.61368 6.93342 11.7605 8.408 14.6892 9.28149C16.0661 9.69216 17.3413 9.95385 18.2972 10.1147C18.5035 8.53815 19.0431 7.23797 19.8714 6.2053C20.964 4.84286 22.488 4.03677 24.1245 3.67734C26.9471 3.05747 30.0791 3.76367 32.1089 5.06106ZM17.8045 12.6692C16.7197 12.4915 15.2289 12.193 13.6019 11.7078C11.4529 11.0668 8.95756 10.0675 6.86731 8.51944C6.90473 8.80431 6.95783 9.08676 7.0274 9.36155C7.37772 10.7453 8.02866 11.5203 8.61925 11.7612C9.34159 12.0559 9.67633 12.7468 9.39613 13.3647C9.01677 14.2013 8.01898 14.2699 7.1124 14.0851C7.84155 14.9769 9.15214 15.866 11.3381 16.1633C12.0921 16.2658 12.6486 16.7931 12.6609 17.4166C12.6733 18.04 12.1379 18.5816 11.3883 18.704L10.0101 18.9288C10.221 19.0783 10.4493 19.2249 10.6926 19.3623C11.7961 19.9856 12.904 20.2544 13.8605 20.0593C14.5769 19.9132 15.3219 20.1904 15.6563 20.7276C15.9906 21.2647 15.8254 21.9191 15.2581 22.3046C14.2386 22.9969 13.0479 23.5525 11.8546 24.0135C11.2944 24.23 10.6683 24.4436 9.98835 24.6317C10.5113 24.7227 11.0554 24.7974 11.6174 24.8538C14.4208 25.135 17.5412 24.9454 20.4589 24.1273C23.3667 23.3119 26.0544 21.8789 28.0653 19.6736C30.0731 17.4713 31.4743 14.4236 31.6623 10.2854C31.677 9.9596 31.8423 9.6504 32.1249 9.41987C32.8368 8.83907 33.4252 8.17336 33.7146 7.38096C33.2081 7.50978 32.6378 7.62127 31.9585 7.72721C31.4431 7.80758 30.9126 7.6745 30.5416 7.37188C29.3311 6.38436 26.9371 5.73496 24.9477 6.17185C24.0115 6.37747 23.1604 6.82261 22.5212 7.61961C21.8687 8.43333 21.3695 9.70098 21.3695 11.6249C21.3695 11.9904 21.1797 12.3388 20.8472 12.5837C20.0587 13.1643 18.7317 12.8211 17.8045 12.6692Z" fill="#0F0F0F"/>
</svg>
