<svg width="284" height="40" viewBox="0 0 284 40" fill="none" xmlns="http://www.w3.org/2000/svg">
<path d="M180.851 0.697709C160.655 1.32266 140.471 2.37085 120.321 3.84229C102.035 4.16634 83.7464 4.49038 65.4609 4.81443C45.3964 5.17155 25.3319 5.52535 5.27073 5.88247C3.32975 5.91553 0.324047 7.34068 0.0264527 9.49328C-0.300901 11.8674 2.63536 12.2642 4.28867 12.2378C17.3266 12.0063 30.3646 11.7748 43.4025 11.5434C37.9764 12.2345 32.5568 12.952 27.1373 13.7026C25.2592 13.9638 22.637 14.8434 22.0385 16.8968C21.5029 18.7286 23.176 20.0281 24.9516 20.0612C55.0616 20.577 85.1748 21.0962 115.285 21.612C121.693 21.7211 128.101 21.8335 134.509 21.9426C125.291 22.9512 116.085 24.1118 106.906 25.4245C92.5122 27.4878 78.1781 29.9347 63.9068 32.7222C62.3659 33.0231 60.1802 34.3722 59.9454 36.1015C59.7173 37.7548 61.5392 38.8361 63.0007 38.8493C97.244 39.1469 131.487 39.4478 165.73 39.7454C175.386 39.8281 185.038 39.914 194.693 39.9967C196.905 40.0165 199.742 39.385 200.856 37.2125C201.852 35.2683 199.987 33.6513 198.085 33.6348C165.122 33.3471 132.158 33.0595 99.1948 32.7718C100.114 32.6329 101.03 32.4907 101.949 32.3551C114.405 30.5101 126.904 28.946 139.43 27.6664C164.494 25.1071 189.67 23.6819 214.863 23.4009C215.978 23.3876 217.105 23.381 218.229 23.3744C230.999 23.5926 243.766 23.8142 256.536 24.0324C258.745 24.0688 261.592 23.4075 262.7 21.2483C263.718 19.2643 261.814 17.7466 259.929 17.6705C246.898 17.1481 233.853 16.9232 220.812 16.9993C203.74 16.705 186.668 16.414 169.596 16.1197C139.486 15.6039 109.373 15.0847 79.2626 14.5689C76.8356 14.5259 74.4052 14.4863 71.9782 14.4433C87.7441 12.7668 103.536 11.3483 119.349 10.1943C152.312 9.60901 185.279 9.02705 218.243 8.44178C238.307 8.08466 258.372 7.73086 278.433 7.37374C280.274 7.34068 282.979 6.07756 283.531 4.17956C284.074 2.32456 282.387 1.08127 280.618 1.01514C247.377 -0.221528 214.096 -0.330646 180.851 0.697709Z" fill="#8A4FFF"/>
</svg>
