<svg width="161" height="69" viewBox="0 0 161 69" fill="none" xmlns="http://www.w3.org/2000/svg">
<path d="M138.051 0H18.7285C14.8356 0 11.3499 1.82873 10.1647 4.48865L1.27291 24.1618C0.407217 26.0506 0 28.0294 0 30.0404V58.0398H27.1662C27.6995 64.1569 34.7103 69 43.3533 69C51.998 69 59.01 64.1569 59.5408 58.0398H103.304C103.835 64.1569 110.887 69 119.492 69C128.135 69 135.146 64.1569 135.672 58.0398H161V16.5425C161 7.41308 150.716 0 138.051 0ZM50.238 58.0398C49.7503 60.4633 46.8368 62.3261 43.3533 62.3261C39.873 62.3261 36.9209 60.4633 36.4316 58.0398C36.3888 57.8034 36.3467 57.567 36.3467 57.3027C36.3467 56.5053 36.5913 55.7664 37.1275 55.0873C38.1919 53.4027 40.6094 52.251 43.353 52.251C46.1001 52.251 48.4755 53.4027 49.5817 55.0873C50.0776 55.7664 50.321 56.5053 50.321 57.3027C50.3213 57.567 50.2767 57.8034 50.238 58.0398ZM126.413 58.0398C125.925 60.4633 122.972 62.3261 119.492 62.3261C116.01 62.3261 113.095 60.4633 112.608 58.0398C112.569 57.8034 112.524 57.567 112.524 57.3027C112.524 56.5053 112.767 55.7664 113.263 55.0873C114.369 53.4027 116.746 52.251 119.492 52.251C122.236 52.251 124.653 53.4027 125.717 55.0873C126.254 55.7664 126.498 56.5053 126.498 57.3027C126.498 57.567 126.454 57.8034 126.413 58.0398ZM156.903 55.0875H135.435C133.998 49.6795 127.397 45.6095 119.492 45.6095C111.624 45.6095 104.984 49.6795 103.549 55.0875H59.2964C57.8613 49.6795 51.2615 45.6095 43.3533 45.6095C35.448 45.6095 28.8486 49.6795 27.4118 55.0875H4.09701V30.0404C4.09701 28.3558 4.46681 26.6735 5.16301 25.0469L14.0551 5.40188C14.7092 3.9578 16.6003 2.95231 18.7285 2.95231H138.051C143.257 2.95231 147.966 4.48865 151.368 6.94026C154.812 9.39186 156.903 12.7891 156.903 16.5425V55.0875Z" fill="black" fill-opacity="0.48"/>
</svg>
