<svg width="221" height="65" viewBox="0 0 221 65" fill="none" xmlns="http://www.w3.org/2000/svg">
<path d="M23.6063 10.9411C34.0357 4.16772 45.0685 -0.624774 57.8926 1.18294C64.0775 2.05031 68.7854 5.54476 72.9304 10.1155C74.0471 11.3465 76.4137 12.1354 78.1142 12.0094C86.8258 11.3466 95.4917 9.93325 104.211 9.61746C107.639 9.49251 111.144 11.5062 114.625 12.5396C118.025 18.7937 122.081 20.5728 129.647 18.0026C139.924 14.5053 150.854 14.3906 161.327 19.0417C166.706 21.4287 170.241 25.166 171.847 30.3904C179.992 29.1563 188.09 27.3443 196.275 26.8392C204.183 26.3445 212.172 27.1861 220.137 27.4339C220.131 28.1342 220.123 28.8444 220.117 29.5447C217.488 29.5212 214.844 29.3626 212.224 29.5135C201.503 30.1034 190.771 30.6406 180.065 31.4774C175.031 31.8778 172.559 34.4957 172.051 40.1059C171.229 49.2675 167.511 57.3606 159.364 62.6607C155.336 65.2885 149.803 65.5775 147.705 63.323C145.327 60.7631 145.258 54.6407 148.504 51.2902C153.765 45.8687 159.409 40.7509 165.307 36.0153C169.311 32.8034 170.157 30.4574 166.698 26.3579C160.057 18.4839 150.879 17.5873 141.606 18.3711C135.05 18.9201 128.606 20.801 121.719 22.1636C122.081 25.3508 122.558 27.9085 122.628 30.4729C122.98 43.1026 116.104 51.6242 106.284 58.2346C103.143 60.3437 99.6754 62.1287 96.1391 63.4539C88.1602 66.4466 84.249 63.098 85.7548 54.7019C87.4118 45.4795 92.0043 37.882 99.5496 32.3701C105.1 28.3129 111.043 24.7848 117.6 20.5051C116.631 19.6874 115.311 18.5715 114.001 17.4475C112.033 15.8166 110.312 13.3872 108.053 12.6789C97.9384 9.50667 88.115 12.5787 78.3603 15.0534C77.9013 15.1728 77.9553 17.2667 77.7707 18.4426C77.1881 39.461 66.3078 53.4207 47.6318 61.7045C40.7171 64.77 34.0854 62.7331 32.1468 56.7159C31.0389 53.2702 31.4527 48.7306 32.7312 45.2437C36.7784 34.1815 45.6401 27.2534 55.2736 21.2188C56.5374 20.4232 57.8396 19.6957 59.1276 18.9351C63.277 17.2037 67.4165 15.4705 71.7762 13.6454C67.1679 6.66187 61.2029 2.7036 53.6385 2.9867C41.2617 3.4567 30.2534 7.94869 21.3001 16.8221C12.1538 23.139 6.63741 32.2855 1.85206 41.9928C1.41937 41.8018 0.986685 41.6108 0.553996 41.4198C1.61447 38.5132 2.21107 35.3082 3.83642 32.7591C6.46976 28.6459 9.85031 25.0049 12.767 21.0655C13.6977 19.8126 14.1896 18.2354 14.888 16.8078C15.5318 16.1225 16.1677 15.4255 16.8115 14.7402C19.0758 13.4771 21.342 12.2042 23.6063 10.9411ZM72.8085 15.1152C64.7483 19.6078 56.7473 23.054 49.9735 28.1276C42.9034 33.4317 36.2382 39.7452 34.6585 49.3782C33.2293 58.1339 37.8696 62.0531 46.2958 59.0609C58.3083 54.8035 65.7282 45.4766 71.4483 34.8832C74.3935 29.4546 75.8567 23.1246 72.8085 15.1152ZM118.822 24.1039C109.237 27.5957 101.356 32.6091 95.4868 40.5728C91.8204 45.5542 88.8915 50.7824 88.5158 57.1691C88.2824 61.1115 90.0037 62.3719 93.579 61.2775C106.565 57.3101 123.468 44.4931 118.822 24.1039ZM169.802 36.3396C160.611 40.9606 154.391 47.559 149.642 55.5141C148.808 56.9067 149.395 60.7552 150.445 61.293C152.061 62.1275 155.012 61.7221 156.769 60.7321C165.851 55.6029 168.438 46.7948 169.802 36.3396Z" fill="#8A4FFF"/>
</svg>
