<svg width="66" height="80" viewBox="0 0 66 80" fill="none" xmlns="http://www.w3.org/2000/svg">
<path d="M39.5685 31.6771C46.5414 28.7265 53.5143 25.7759 60.4871 22.8114C60.8907 23.6882 61.3083 24.5511 61.7119 25.428C55.2679 32.7209 43.8274 31.7467 36.4092 39.5685C46.1795 45.2888 55.6576 50.8281 65.1357 56.3813C64.7878 57.0633 64.4259 57.7453 64.0779 58.4134C53.7787 56.7293 45.9569 49.2693 35.1844 44.1475C37.9958 56.4649 40.4871 67.4461 42.9923 78.4273C42.4356 78.9562 41.865 79.485 41.3083 80C39.6938 78.3994 37.0772 77.0216 36.6319 75.1427C34.9896 68.2672 34.0988 61.2109 32.8601 54.238C32.4704 52.0668 31.872 49.9374 31.3709 47.794C30.675 47.6409 29.9791 47.4878 29.2832 47.3347C25.8455 56.2978 22.4078 65.2749 18.9005 74.4607C14.753 70.3271 16.437 64.0501 26.6945 43.9944C17.4948 46.7919 9.11621 49.3528 0.72373 51.9137C0.473208 51.2317 0.236604 50.5358 0 49.8539C8.87961 46.2074 17.7731 42.5609 28.3507 38.2185C20.9603 33.1524 14.7669 28.8935 8.57342 24.6486C8.92136 24.064 9.26931 23.4795 9.61726 22.8949C15.5602 25.929 21.5031 28.9631 28.3368 32.4565C26.8198 21.364 25.3862 10.9255 23.9666 0.473208C24.8295 0.320111 25.7063 0.167015 26.5692 0C28.5177 9.65901 30.4523 19.318 32.4008 28.977C32.874 29.2276 33.3333 29.4642 33.8065 29.7147C37.9541 21.3083 42.1016 12.9019 46.263 4.48156C47.0285 4.84342 47.794 5.19137 48.5595 5.55324C45.1496 13.8205 41.7397 22.0877 38.3299 30.3549C38.2324 30.8977 38.135 31.4266 38.0376 31.9555C38.5386 31.858 39.0536 31.7606 39.5685 31.6771Z" fill="#8A4FFF"/>
</svg>
